HIERARCHY
ROOT Hips
{
	OFFSET -0.001795 -0.223333 0.028219
	CHANNELS 6 Xposition Yposition Zposition Zrotation Yrotation Xrotation 
	JOINT LeftUpLeg
	{
		OFFSET 0.069520 -0.091406 -0.006815
		CHANNELS 3 Zrotation Yrotation Xrotation
		JOINT LeftLeg
		{
			OFFSET 0.034277 -0.375199 -0.004496
			CHANNELS 3 Zrotation Yrotation Xrotation
			JOINT LeftFoot
			{
				OFFSET -0.013596 -0.397961 -0.043693
				CHANNELS 3 Zrotation Yrotation Xrotation
				JOINT LeftToe
				{
					OFFSET 0.026358 -0.055791 0.119288
					CHANNELS 3 Zrotation Yrotation Xrotation
					End Site
					{
						OFFSET 0.000000 0.000000 0.000000
					}
				}
			}
		}
	}
	JOINT RightUpLeg
	{
		OFFSET -0.067670 -0.090522 -0.004320
		CHANNELS 3 Zrotation Yrotation Xrotation
		JOINT RightLeg
		{
			OFFSET -0.038290 -0.382569 -0.008850
			CHANNELS 3 Zrotation Yrotation Xrotation
			JOINT RightFoot
			{
				OFFSET 0.015774 -0.398415 -0.042312
				CHANNELS 3 Zrotation Yrotation Xrotation
				JOINT RightToe
				{
					OFFSET -0.025372 -0.048144 0.123348
					CHANNELS 3 Zrotation Yrotation Xrotation
					End Site
					{
						OFFSET 0.000000 0.000000 0.000000
					}
				}
			}
		}
	}
	JOINT Spine
	{
		OFFSET -0.002533 0.108963 -0.026696
		CHANNELS 3 Zrotation Yrotation Xrotation
		JOINT Spine1
		{
			OFFSET 0.005487 0.135180 0.001092
			CHANNELS 3 Zrotation Yrotation Xrotation
			JOINT Spine2
			{
				OFFSET 0.001457 0.052922 0.025425
				CHANNELS 3 Zrotation Yrotation Xrotation
				JOINT Neck
				{
					OFFSET -0.002778 0.213870 -0.042857
					CHANNELS 3 Zrotation Yrotation Xrotation
					JOINT Head
					{
						OFFSET 0.005152 0.064970 0.051349
						CHANNELS 3 Zrotation Yrotation Xrotation
						End Site
						{
							OFFSET 0.000000 0.000000 0.000000
						}
					}
				}
				JOINT LeftShoulder
				{
					OFFSET 0.078845 0.121749 -0.034090
					CHANNELS 3 Zrotation Yrotation Xrotation
					JOINT LeftArm
					{
						OFFSET 0.090977 0.030469 -0.008868
						CHANNELS 3 Zrotation Yrotation Xrotation
						JOINT LeftForeArm
						{
							OFFSET 0.259612 -0.012772 -0.027456
							CHANNELS 3 Zrotation Yrotation Xrotation
							JOINT LeftHand
							{
								OFFSET 0.249234 0.008986 -0.001171
								CHANNELS 3 Zrotation Yrotation Xrotation
								End Site
								{
									OFFSET 0.000000 0.000000 0.000000
								}
							}
						}
					}
				}
				JOINT RightShoulder
				{
					OFFSET -0.081759 0.118833 -0.038615
					CHANNELS 3 Zrotation Yrotation Xrotation
					JOINT RightArm
					{
						OFFSET -0.096012 0.032551 -0.009143
						CHANNELS 3 Zrotation Yrotation Xrotation
						JOINT RightForeArm
						{
							OFFSET -0.253742 -0.013329 -0.021401
							CHANNELS 3 Zrotation Yrotation Xrotation
							JOINT RightHand
							{
								OFFSET -0.255298 0.007772 -0.005559
								CHANNELS 3 Zrotation Yrotation Xrotation
								End Site
								{
									OFFSET 0.000000 0.000000 0.000000
								}
							}
						}
					}
				}
			}
		}
	}
}
MOTION
Frames: 11
Frame Time: 0.050000
0.157913 0.928832 1.132086 -4.993232 -9.839996 -7.291339 17.218171 0.608938 0.335477 -0.671317 -0.008500 21.393487 0.318721 4.292738 12.222756 0.000000 0.000000 0.000000 -16.492851 0.436240 -7.086250 -2.094748 1.367774 14.967141 7.825157 0.240506 26.825894 0.000000 0.000000 0.000000 -1.797453 -0.320486 17.306334 -7.293634 1.777051 -31.070714 4.056666 4.778455 25.835803 10.527029 -7.903397 -11.442941 0.000000 0.000000 0.000000 -11.344626 -27.577119 12.202163 -26.843905 -39.626539 2.867086 31.407706 -62.290161 -15.688350 0.000000 0.000000 0.000000 26.561569 10.452168 4.644368 27.125064 32.433268 1.820448 -7.210120 58.336413 -1.581161 0.000000 0.000000 0.000000 
0.197639 0.943528 1.129235 -6.574393 -11.971206 -6.291818 16.174577 0.610126 1.526673 -1.595020 0.369263 19.009011 1.884472 6.457038 11.250151 0.000000 0.000000 0.000000 -16.758709 0.568202 -7.630540 -0.068928 1.018446 15.696786 5.090932 -5.104492 29.513981 0.000000 0.000000 0.000000 -1.740918 -0.296204 16.522437 -7.250712 1.694761 -29.940282 2.906511 6.894574 24.766165 9.574690 -7.347792 -9.143864 0.000000 0.000000 0.000000 -2.940456 -30.070074 10.914731 -17.385658 -47.013918 1.736061 59.196230 -51.775227 -27.757774 0.000000 0.000000 0.000000 20.052307 14.306088 6.721061 20.866688 42.382853 2.179878 -32.182660 52.589671 -13.605850 0.000000 0.000000 0.000000 
0.229900 0.960945 1.128844 -6.931293 -14.402492 -4.665670 14.593885 0.595521 3.095988 -1.797978 0.382796 13.325659 1.049699 5.528017 15.651799 0.000000 0.000000 0.000000 -17.237879 0.770971 -7.691750 -0.242977 1.155147 16.029246 3.871255 -8.310449 33.297428 0.000000 0.000000 0.000000 -2.746279 -0.084019 17.117808 -7.468336 1.515292 -37.247883 3.449390 8.390454 31.121735 11.912178 -9.169425 -11.820620 0.000000 0.000000 0.000000 7.083617 -29.663809 7.880933 -6.261221 -51.895683 -2.009731 73.993082 -35.912319 -24.980828 0.000000 0.000000 0.000000 12.927846 15.655906 6.840999 6.410770 49.739789 -2.379694 -45.186455 39.941161 -15.113459 0.000000 0.000000 0.000000 
0.256249 0.980379 1.130430 -9.102584 -16.837361 -2.457177 14.718848 0.651537 5.183508 -1.243469 0.188560 7.629256 0.811488 5.434318 19.676307 0.000000 0.000000 0.000000 -14.414158 0.872851 -7.979115 -2.900268 1.878239 16.340697 4.435961 -9.060283 36.779381 0.000000 0.000000 0.000000 -3.778764 0.157070 17.505815 -7.911782 1.488897 -37.444055 4.520759 9.186407 29.085980 12.343929 -9.743732 -10.034472 0.000000 0.000000 0.000000 15.626860 -30.855822 5.783020 3.787277 -52.962210 -5.353886 81.601929 -18.939123 -14.869549 0.000000 0.000000 0.000000 3.858848 15.359247 5.513925 -5.950292 48.125020 -6.348652 -50.033166 29.171201 -12.565371 0.000000 0.000000 0.000000 
0.277898 0.998977 1.132987 -10.618018 -17.520086 -1.526786 14.118233 0.647293 5.507307 -0.995686 0.127865 5.558715 1.482812 6.814448 23.381438 0.000000 0.000000 0.000000 -12.901454 0.875484 -6.940732 -3.789470 2.054614 15.970912 6.326333 -7.081188 36.903894 0.000000 0.000000 0.000000 -5.629129 0.591746 18.970100 -6.164787 1.297886 -39.519530 3.468214 8.697159 29.489013 14.079283 -11.360035 -9.691967 0.000000 0.000000 0.000000 22.931274 -28.168537 3.110952 10.044425 -53.809522 -7.477241 85.899998 -7.130933 -5.619986 0.000000 0.000000 0.000000 -5.975597 11.984076 3.498289 -12.369515 46.283581 -8.250736 -47.580134 20.878093 -8.572377 0.000000 0.000000 0.000000 
0.294308 1.014394 1.134797 -13.777990 -16.876455 0.297329 15.891056 0.624002 5.243818 -0.334442 0.003811 3.622899 0.647373 5.886105 24.108351 0.000000 0.000000 0.000000 -10.841723 0.823911 -7.108200 -4.377828 2.316759 16.884132 6.661698 -7.293610 39.676961 0.000000 0.000000 0.000000 -7.884590 1.180199 20.548934 -4.632496 1.193129 -37.929934 3.893822 7.059191 26.273818 13.839661 -11.256624 -8.230989 0.000000 0.000000 0.000000 24.968622 -28.153141 2.734307 16.805826 -51.694784 -9.108973 87.647857 -0.925174 -0.095015 0.000000 0.000000 0.000000 -13.406988 8.261737 2.472669 -13.907209 41.865477 -7.758475 -45.117264 17.904440 -6.994666 0.000000 0.000000 0.000000 
0.306134 1.022977 1.134870 -16.740651 -17.846060 1.947213 18.322570 0.777685 4.652765 -0.084512 -0.034636 3.879963 0.066320 5.453304 26.836442 0.000000 0.000000 0.000000 -9.754957 0.920370 -9.110093 -2.571014 2.073730 18.082274 6.910752 -6.628524 37.600318 0.000000 0.000000 0.000000 -11.077589 2.228126 22.356438 0.345931 0.779800 -38.282118 1.500673 7.277655 26.122388 14.307776 -11.680767 -7.795030 0.000000 0.000000 0.000000 27.354018 -24.485382 1.706230 22.257377 -51.724867 -11.011579 85.871244 3.451765 3.701921 0.000000 0.000000 0.000000 -17.107326 5.569720 1.989439 -11.309180 40.456130 -6.743974 -44.486207 16.249057 -6.204732 0.000000 0.000000 0.000000 
0.316112 1.026058 1.133146 -20.294459 -18.627077 3.714764 21.668032 1.190440 2.414913 -0.041581 -0.037279 6.227065 0.627675 5.873259 25.719863 0.000000 0.000000 0.000000 -8.270511 1.095831 -11.430948 -2.601564 2.484673 20.525930 9.936915 -2.241512 35.152873 0.000000 0.000000 0.000000 -13.038198 3.307737 25.533063 3.906895 0.799860 -40.797410 0.083405 8.209954 27.393534 14.663625 -11.158039 -10.669229 0.000000 0.000000 0.000000 27.327780 -23.025137 1.642182 25.753857 -51.817868 -12.657137 83.575862 4.790417 4.384898 0.000000 0.000000 0.000000 -16.931486 5.030472 1.788456 -7.075398 38.125551 -5.061783 -47.437027 17.789096 -7.229403 0.000000 0.000000 0.000000 
0.326239 1.022269 1.130682 -22.945867 -16.548277 6.022854 25.341786 1.863985 -2.469059 -0.544965 0.098378 10.681634 -0.187160 4.945945 24.510797 0.000000 0.000000 0.000000 -7.204005 1.420778 -15.201175 -3.534060 3.506188 25.609168 9.758391 -0.465112 31.720545 0.000000 0.000000 0.000000 -14.267172 4.134179 28.513279 2.701036 0.746460 -39.426375 1.987253 4.911263 24.740549 15.075046 -10.813153 -12.822715 0.000000 0.000000 0.000000 24.715003 -21.657431 2.156118 28.264378 -53.198620 -13.770604 80.703327 4.199158 4.281399 0.000000 0.000000 0.000000 -13.859633 3.807961 1.951656 -2.927283 37.869445 -4.247978 -48.485213 23.673904 -10.170653 0.000000 0.000000 0.000000 
0.336771 1.014560 1.128507 -24.057606 -13.102893 6.704021 26.326858 2.282894 -7.460450 -0.877703 0.217169 16.309319 -2.103541 2.246248 21.371900 0.000000 0.000000 0.000000 -6.040970 1.585735 -17.022219 -4.123872 4.655709 32.529131 7.456100 -0.684318 26.907128 0.000000 0.000000 0.000000 -15.852130 5.365745 33.917285 3.768344 0.725014 -40.054128 2.777252 3.650784 24.629104 18.314693 -11.679105 -17.960151 0.000000 0.000000 0.000000 19.550842 -21.942477 3.624340 30.258667 -51.359817 -14.487930 77.842005 0.966306 1.236772 0.000000 0.000000 0.000000 -10.128657 4.666553 1.924160 6.474600 38.050863 -1.895673 -53.620972 28.826107 -13.455052 0.000000 0.000000 0.000000 
0.346746 1.005601 1.128203 -25.004951 -9.225268 7.437372 26.721038 2.897953 -14.171563 -0.497364 0.048990 22.642939 -3.847563 -0.118013 19.527764 0.000000 0.000000 0.000000 -6.808631 1.473540 -17.630849 -4.044039 4.515488 34.909091 6.464647 0.204313 23.485656 0.000000 0.000000 0.000000 -17.510368 6.384810 38.562800 4.881501 0.356163 -36.840611 4.399287 3.466407 21.715111 19.049437 -9.936929 -23.685821 0.000000 0.000000 0.000000 19.443003 -22.003264 4.282129 23.686529 -50.200257 -12.105977 69.504047 -2.696003 -1.271716 0.000000 0.000000 0.000000 -6.440092 5.043919 1.883106 20.979274 36.002210 1.677443 -56.898795 40.530368 -19.744783 0.000000 0.000000 0.000000 
